<svg xmlns="http://www.w3.org/2000/svg" viewBox="0 0 64 64">
  <defs>
    <linearGradient id="bg" x1="10%" y1="0%" x2="90%" y2="100%">
      <stop offset="0%" stop-color="#080f1f"/>
      <stop offset="100%" stop-color="#1b2747"/>
    </linearGradient>
    <linearGradient id="arrow" x1="0%" y1="0%" x2="100%" y2="100%">
      <stop offset="0%" stop-color="#ff5c93"/>
      <stop offset="100%" stop-color="#d81e5b"/>
    </linearGradient>
  </defs>
  <rect width="64" height="64" rx="16" fill="url(#bg)"/>
  <rect x="14" y="18" width="36" height="24" rx="6" fill="rgba(255,255,255,0.08)" stroke="rgba(255,255,255,0.12)"/>
  <rect x="18" y="22" width="28" height="4" rx="2" fill="rgba(255,255,255,0.18)"/>
  <rect x="18" y="30" width="18" height="3" rx="1.5" fill="rgba(255,255,255,0.14)"/>
  <rect x="18" y="36" width="14" height="3" rx="1.5" fill="rgba(255,255,255,0.14)"/>
  <path
    d="M44 28v14l-12 8-12-8V28"
    fill="none"
    stroke="rgba(232,48,108,0.45)"
    stroke-width="2"
    stroke-linecap="round"
    stroke-linejoin="round"
  />
  <path
    d="M32 24c1.1 0 2 .9 2 2v7.2l3.6-3.2c.8-.7 2-.6 2.6.3.6.8.5 2-.3 2.6l-7 6.2a2 2 0 0 1-2.6 0l-7-6.2c-.8-.7-.8-1.9-.1-2.6.7-.8 1.9-.8 2.6-.1l3.8 3.3V26c0-1.1.9-2 2-2z"
    fill="url(#arrow)"
  />
</svg>

